<svg width="24" height="184" viewBox="0 0 24 184" fill="none" xmlns="http://www.w3.org/2000/svg"><path d="m2.208 7.445 2.188-4.878A3.5 3.5 0 0 1 7.59.5h8.82a3.5 3.5 0 0 1 3.194 2.067l2.188 4.878a19.273 19.273 0 0 1 1.708 7.932V126c0 5.766-2.445 11.147-4.88 16.438a3.536 3.536 0 0 1-3.207 2.062H8.587a3.539 3.539 0 0 1-3.209-2.062C2.932 137.13.5 131.817.5 126V15.42c0-2.75.582-5.465 1.708-7.975Z" fill="url(#yixosvfaca)" stroke="#42946E"/><path d="M2.5 136s4 3.5 9.5 3.5 9.5-3.5 9.5-3.5" stroke="#42946E"/><ellipse cx="12" cy="45" rx="3" ry="2" stroke="#95D0B4"/><ellipse cx="12" cy="79" rx="3" ry="2" stroke="#95D0B4"/><ellipse cx="12" cy="21" rx="3" ry="2" stroke="#95D0B4"/><ellipse cx="12" cy="59" rx="3" ry="2" stroke="#95D0B4"/><ellipse cx="12" cy="93" rx="3" ry="2" stroke="#95D0B4"/><ellipse cx="12" cy="112" rx="3" ry="2" stroke="#95D0B4"/><path d="M18 11.581a.5.5 0 1 1 1 0v106.816a.5.5 0 0 1-1 0V11.581Zm-13 0a.5.5 0 1 1 1 0v106.816a.5.5 0 0 1-1 0V11.581Z" fill="#26543F"/><path d="m19.022 131.123.767-6.401c.093-.773-.73-1.44-1.492-1.285-1.27.258-3.306.525-6.297.525-2.99 0-5.027-.267-6.297-.525-.763-.155-1.585.512-1.492 1.285l.767 6.401c.015.12.04.239.094.348.303.596 1.704 2.588 6.928 2.588s6.625-1.992 6.928-2.588a1.04 1.04 0 0 0 .094-.348Z" fill="#B9DFCD"/><path opacity=".5" d="M24 174.944c0-7.191-5.195-29.455-6.297-34.092-.09-.38-.578-.52-.9-.299-.867.592-2.514 1.447-4.803 1.447-2.318 0-3.978-.877-4.835-1.47-.314-.217-.788-.091-.889.277C5.133 144.975 0 164.277 0 174.944 0 180.377 2 184 12 184s12-4.297 12-9.056Z" fill="url(#rji0io6ofb)"/><path fill-rule="evenodd" clip-rule="evenodd" d="M12 35.051c-2.25 0-4.078.024-5.558.132-1.485.108-2.581.297-3.385.611-.788.307-1.278.726-1.585 1.298-.318.59-.472 1.4-.472 2.54H0c0-1.21.159-2.212.591-3.014.442-.822 1.14-1.38 2.102-1.755.946-.37 2.162-.568 3.677-.678 1.52-.11 3.38-.134 5.63-.134s4.11.024 5.63.134c1.515.11 2.731.309 3.677.678.962.375 1.66.933 2.102 1.755.432.802.591 1.804.591 3.014h-1c0-1.14-.154-1.95-.471-2.54-.308-.572-.798-.99-1.586-1.298-.804-.313-1.9-.503-3.386-.611-1.48-.108-3.307-.132-5.557-.132ZM6.442 69.734c1.48-.108 3.308-.131 5.558-.131s4.078.023 5.558.13c1.485.109 2.581.299 3.385.613.788.307 1.278.725 1.585 1.297.319.59.472 1.4.472 2.54h1c0-1.21-.159-2.211-.591-3.014-.442-.822-1.14-1.38-2.102-1.755-.946-.369-2.162-.567-3.677-.677-1.52-.11-3.38-.134-5.63-.134s-4.11.023-5.63.134c-1.515.11-2.731.308-3.677.677-.962.375-1.66.933-2.102 1.755C.159 71.972 0 72.974 0 74.184h1c0-1.141.154-1.95.472-2.541.307-.572.797-.99 1.585-1.297.804-.314 1.9-.504 3.385-.612Zm0 34.551c1.48-.107 3.308-.131 5.558-.131s4.078.024 5.558.131c1.485.108 2.581.298 3.385.612.788.307 1.278.725 1.585 1.297.319.591.472 1.4.472 2.541h1c0-1.21-.159-2.212-.591-3.015-.442-.821-1.14-1.379-2.102-1.755-.946-.369-2.162-.567-3.677-.677-1.52-.111-3.38-.134-5.63-.134s-4.11.023-5.63.134c-1.515.11-2.731.308-3.677.677-.962.376-1.66.934-2.102 1.755-.432.803-.591 1.805-.591 3.015h1c0-1.141.154-1.95.472-2.541.307-.572.797-.99 1.585-1.297.804-.314 1.9-.504 3.385-.612Z" fill="#42946E"/><defs><linearGradient id="yixosvfaca" x1="12" y1="0" x2="12" y2="145" gradientUnits="userSpaceOnUse"><stop stop-color="#081A11"/><stop offset="1" stop-color="#0F613A"/></linearGradient><linearGradient id="rji0io6ofb" x1="10.5" y1="184" x2="10.5" y2="138.718" gradientUnits="userSpaceOnUse"><stop offset=".115" stop-color="#fff" stop-opacity="0"/><stop offset=".531" stop-color="#999" stop-opacity=".448"/><stop offset="1" stop-color="#fff" stop-opacity=".4"/></linearGradient></defs></svg>