<svg width="26" height="184" viewBox="0 0 26 184" fill="none" xmlns="http://www.w3.org/2000/svg"><path d="M13 .5c3.068 0 5.936 2.216 8.07 5.384 2.126 3.153 3.43 7.123 3.43 10.375v111.336c0 3.275-1.1 7.506-3.117 10.908-2.025 3.412-4.892 5.867-8.383 5.867-3.046 0-5.915-2.441-8.061-5.877-2.132-3.413-3.439-7.641-3.439-10.898V16.26c0-3.254 1.304-7.223 3.43-10.376C7.063 2.716 9.931.5 13 .5Z" fill="url(#zo5i431kfa)" stroke="#42946E"/><path d="M20 140.297c-2-4.702-4-5.589-7-5.589s-5 .887-7 5.589" stroke="#42946E"/><path d="M18 11.5a.5.5 0 0 1 1 0v102a.5.5 0 0 1-1 0v-102Zm-11 0a.5.5 0 0 1 1 0v102a.5.5 0 0 1-1 0v-102Z" fill="#26543F"/><path d="M21 119.742v-1.293s-2.214 2.771-8 2.771-8-2.771-8-2.771v1.293s2.857 4.804 8 4.804 8-4.804 8-4.804Z" fill="#B9DFCD"/><path opacity=".5" d="M11 173.4c0-14.05-1.063-42.4-4.5-42.4-3.038 0-6.5 28.35-6.5 42.4 0 6.36 2.462 10.6 5.5 10.6s5.5-5.03 5.5-10.6Z" fill="url(#13m96kzudb)"/><path opacity=".5" d="M26 173.4c0-14.05-3.063-42.4-6.5-42.4-3.038 0-4.5 28.35-4.5 42.4 0 6.36 2.462 10.6 5.5 10.6s5.5-5.03 5.5-10.6Z" fill="url(#gqx7yd0jzc)"/><path fill-rule="evenodd" clip-rule="evenodd" d="M21 17.343a.5.5 0 1 1 1 0v7.13a.5.5 0 0 1-1 0v-7.13Zm.5 20.825a.5.5 0 0 0-.5.5v7.13a.5.5 0 1 0 1 0v-7.13a.5.5 0 0 0-.5-.5Zm0 34.55a.5.5 0 0 0-.5.5v7.13a.5.5 0 0 0 1 0v-7.13a.5.5 0 0 0-.5-.5Zm0 34.552a.5.5 0 0 0-.5.5v7.13a.5.5 0 0 0 1 0v-7.13a.5.5 0 0 0-.5-.5ZM21 87.446a.5.5 0 1 1 1 0v7.13a.5.5 0 0 1-1 0v-7.13Zm.5-35.051a.5.5 0 0 0-.5.5v7.13a.5.5 0 1 0 1 0v-7.13a.5.5 0 0 0-.5-.5ZM4 17.343a.5.5 0 1 1 1 0v7.13a.5.5 0 0 1-1 0v-7.13Zm.5 20.825a.5.5 0 0 0-.5.5v7.13a.5.5 0 1 0 1 0v-7.13a.5.5 0 0 0-.5-.5Zm0 34.55a.5.5 0 0 0-.5.5v7.13a.5.5 0 0 0 1 0v-7.13a.5.5 0 0 0-.5-.5Zm0 34.552a.5.5 0 0 0-.5.5v7.13a.5.5 0 0 0 1 0v-7.13a.5.5 0 0 0-.5-.5ZM4 87.446a.5.5 0 1 1 1 0v7.13a.5.5 0 0 1-1 0v-7.13Zm.5-35.051a.5.5 0 0 0-.5.5v7.13a.5.5 0 1 0 1 0v-7.13a.5.5 0 0 0-.5-.5Z" fill="#95D0B4"/><path fill-rule="evenodd" clip-rule="evenodd" d="M13 30.538c-.984 0-3.81.094-6.374.76-1.285.335-2.463.802-3.309 1.442C2.484 33.37 2 34.14 2 35.119H1c0-1.373.704-2.413 1.714-3.177.998-.754 2.32-1.262 3.66-1.611 2.686-.698 5.61-.793 6.626-.793s3.94.095 6.626.793c1.34.349 2.662.857 3.66 1.611 1.01.764 1.714 1.804 1.714 3.177h-1c0-.978-.484-1.749-1.317-2.379-.846-.64-2.024-1.107-3.309-1.441-2.564-.667-5.39-.761-6.374-.761ZM6.626 65.85c2.564-.666 5.39-.76 6.374-.76s3.81.093 6.374.76c1.285.334 2.463.802 3.309 1.441.833.63 1.317 1.401 1.317 2.38h1c0-1.374-.704-2.414-1.714-3.177-.998-.754-2.32-1.263-3.66-1.612-2.686-.698-5.61-.793-6.626-.793s-3.94.095-6.626.793c-1.34.349-2.662.858-3.66 1.612C1.704 67.257 1 68.297 1 69.67h1c0-.978.484-1.749 1.317-2.379.846-.64 2.024-1.107 3.309-1.44Zm0 34.552c2.564-.667 5.39-.761 6.374-.761s3.81.094 6.374.761c1.285.334 2.463.801 3.309 1.441.833.63 1.317 1.401 1.317 2.379h1c0-1.374-.704-2.413-1.714-3.177-.998-.754-2.32-1.263-3.66-1.611-2.686-.698-5.61-.793-6.626-.793s-3.94.095-6.626.793c-1.34.348-2.662.857-3.66 1.611-1.01.764-1.714 1.803-1.714 3.177h1c0-.978.484-1.749 1.317-2.379.846-.64 2.024-1.107 3.309-1.441Z" fill="#42946E"/><defs><linearGradient id="zo5i431kfa" x1="13" y1="0" x2="13" y2="144.87" gradientUnits="userSpaceOnUse"><stop stop-color="#081A11"/><stop offset="1" stop-color="#0F613A"/></linearGradient><linearGradient id="13m96kzudb" x1="5.5" y1="184" x2="5.5" y2="131" gradientUnits="userSpaceOnUse"><stop offset=".115" stop-color="#fff" stop-opacity="0"/><stop offset=".531" stop-color="#999" stop-opacity=".448"/><stop offset="1" stop-color="#fff" stop-opacity=".4"/></linearGradient><linearGradient id="gqx7yd0jzc" x1="20.5" y1="184" x2="20.5" y2="131" gradientUnits="userSpaceOnUse"><stop offset=".115" stop-color="#fff" stop-opacity="0"/><stop offset=".531" stop-color="#999" stop-opacity=".448"/><stop offset="1" stop-color="#fff" stop-opacity=".4"/></linearGradient></defs></svg>