<svg version="1.1" xmlns="http://www.w3.org/2000/svg" x="0px" y="0px" viewBox="0 0 256 256" enable-background="new 0 0 256 256" xml:space="preserve">
    <g transform="scale(0.045 0.045) translate(2320 1200)">
        <path d="M4.756 438.175A520.713 520.713 0 0 0 0 489.735h777.799c-2.716-5.306-6.365-10.09-10.045-14.772-132.97-171.791-204.498-156.896-306.819-161.26-34.114-1.403-57.249-1.967-193.037-1.967-72.677 0-151.688.185-228.628.39-9.96 26.884-19.566 52.942-24.243 74.14h398.571v51.909H4.756ZM783.93 541.696H.399c.82 13.851 2.112 27.517 3.978 40.999h723.39c32.248 0 50.299-18.297 56.162-40.999ZM45.017 724.306S164.941 1018.77 511.46 1024c207.112 0 385.071-123.006 465.907-299.694H45.017Z"
              fill="currentColor"/>
        <path d="M511.454 0C319.953 0 153.311 105.16 65.31 260.612c68.771-.144 202.704-.226 202.704-.226h.031v-.051c158.309 0 164.193.707 195.118 1.998l19.149.706c66.7 2.224 148.683 9.384 213.19 58.19 35.015 26.471 85.571 84.896 115.708 126.52 27.861 38.499 35.876 82.756 16.933 125.158-17.436 38.97-54.952 62.215-100.383 62.215H16.69s4.233 17.944 10.58 37.751h970.632A510.385 510.385 0 0 0 1024 512.218C1024.01 229.355 794.532 0 511.454 0Z"
              fill="currentcolor"/>
    </g>

    <g>
        <path fill="currentColor"
          d="M100.6,6.3c-0.3,0.1-1.3,0.3-2.2,0.6c-1.2,0.3-5,3.7-13.1,11.8L73.7,30.1v4.5c0,3.4,0.3,4.8,1.1,6.2c1.1,1.8,3.7,3.5,5.3,3.5c0.7,0,0.8,2.7,0.8,23.5v23.5H58.8c-18.7,0-22.5,0.1-24.3,0.8c-1.3,0.6-6.1,4.9-13.2,12.1L10,115.5v4.3c0,6,1.4,8.4,5.7,9.5l1.5,0.3v57.2c0,56.1,0,57.2,1.1,59c0.6,1,1.9,2.3,2.9,2.9c1.8,1.1,3,1.1,106.7,1.1c116.2,0,106.6,0.3,109.6-3.7l1.6-2l0.3-57.4l0.3-57.4l1.3-0.2c0.7-0.1,2.1-1.1,3.2-2.1c1.9-1.9,1.9-2,1.9-6.8v-4.9l-11.6-11.2c-6.5-6.2-12.5-11.6-13.6-12c-1.6-0.6-6-0.8-23.8-0.8h-21.9V67.8c0-22.1,0.1-23.5,1-23.5c1.6,0,4.4-2.1,5.4-3.8c0.6-1.1,0.8-3.2,0.8-6v-4.3l-11.2-11.2c-6.2-6.1-11.9-11.5-12.6-11.9c-1.1-0.6-7-0.8-29.4-0.9C113.7,6.2,100.9,6.2,100.6,6.3z M163.9,25c4.9,4.9,9,9.1,9,9.4s-20.2,0.4-44.9,0.4c-24.7,0-44.9-0.2-44.9-0.4s4-4.4,9-9.4l9-9H128h26.9L163.9,25z M165.8,86.8l0.2,42.5l31.7,0.2l31.7,0.1V185v55.4H128H26.6V185v-55.4l31.7-0.1l31.7-0.2l0.2-42.5l0.1-42.5H128h37.7L165.8,86.8z M80.8,110.3l0.1,9.3H50.1H19.1l9.4-9.4l9.4-9.4l21.3,0.1l21.3,0.2L80.8,110.3z M225.1,108.4c4.3,4.2,8.8,8.4,9.8,9.4l1.9,1.8H206h-30.9v-9c0-5,0.2-9.3,0.4-9.4c0.2-0.2,9.7-0.4,21.1-0.4h20.7L225.1,108.4z"/>
<!--        <path fill="currentColor"-->
<!--              d="M124.8,64.4c-1.6,1.3-1.6,1.4-1.8,9c-0.3,13.2,0.1,13.7,12.8,13.4l8.3-0.2l1.3-1.6c1.7-2.1,1.7-4.5-0.1-6.2c-1.2-1.3-1.7-1.4-6.9-1.4H133v-4.7c0-6.9-1.5-9.7-5.2-9.7C127,63.1,125.7,63.7,124.8,64.4z"/>-->
        <path fill="currentColor"
              d="M52.4,146.3c-0.2,0.4-0.2,6.9-0.2,14.3l0.2,13.6h4.7h4.7v-14.1v-14.1l-4.6-0.2C53.8,145.7,52.5,145.8,52.4,146.3z"/>
        <path fill="currentColor"
              d="M87.8,146.3c-0.2,0.4-0.2,6.9-0.2,14.3l0.2,13.6h4.7h4.7v-14.1v-14.1l-4.6-0.2C89.3,145.7,88,145.8,87.8,146.3z"/>
        <path fill="currentColor"
              d="M123.3,146.3c-0.2,0.4-0.2,6.9-0.2,14.3l0.2,13.6h4.7h4.7v-14.1v-14.1l-4.6-0.2C124.7,145.7,123.5,145.8,123.3,146.3z"/>
        <path fill="currentColor"
              d="M158.7,146.3c-0.2,0.4-0.2,6.9-0.2,14.3l0.2,13.6h4.7h4.7v-14.1v-14.1l-4.6-0.2C160.2,145.7,158.9,145.8,158.7,146.3z"/>
        <path fill="currentColor"
              d="M194.2,146.3c-0.2,0.4-0.2,6.9-0.2,14.3l0.2,13.6h4.7h4.7v-14.1v-14.1l-4.6-0.2C195.6,145.7,194.4,145.8,194.2,146.3z"/>
        <path fill="currentColor"
              d="M52.5,188.6c-0.2,0.2-0.4,6.6-0.4,14.2v13.7h5h5l-0.1-14l-0.2-14l-4.4-0.2C54.9,188.4,52.7,188.4,52.5,188.6z"/>
        <path fill="currentColor"
              d="M87.9,188.6c-0.2,0.2-0.4,6.6-0.4,14.2v13.7h5h5l-0.1-14l-0.2-14l-4.4-0.2C90.3,188.4,88.2,188.4,87.9,188.6z"/>
        <path fill="currentColor"
              d="M123.4,188.6c-0.2,0.2-0.4,9.9-0.4,21.4V231h5h5l-0.1-21.2l-0.2-21.2l-4.4-0.2C125.8,188.4,123.6,188.4,123.4,188.6z"/>
        <path fill="currentColor"
              d="M158.9,188.6c-0.2,0.2-0.4,6.6-0.4,14.2v13.7h5h5l-0.1-14l-0.2-14l-4.4-0.2C161.2,188.4,159.1,188.4,158.9,188.6z"/>
        <path fill="currentColor"
              d="M194.3,188.6c-0.2,0.2-0.4,6.6-0.4,14.2v13.7h5h5l-0.1-14l-0.2-14l-4.4-0.2C196.7,188.4,194.5,188.4,194.3,188.6z"/>
    </g>
</svg>