<svg version="1.1" xmlns="http://www.w3.org/2000/svg" x="0px" y="0px" viewBox="0 0 256 256" enable-background="new 0 0 256 256" xml:space="preserve">
            <path fill="currentColor" d="M85.5,17.2L74.7,27.9v3.5V35h3.3h3.3v32.4v32.4H56.5h-25l-10.7,10.7L10,121.2v2.8c0,1.6,0.3,3.1,0.7,3.5c0.4,0.4,2,0.7,3.6,0.7h3v59.6c0,50.6,0.1,59.8,0.8,60.7c0.8,1.1,2.6,1.1,110,1.1s109.2,0,110-1.1c0.7-0.9,0.8-10.1,0.8-60.7v-59.6h3.1c3.5,0,4.2-0.7,4.2-4.5c0-2.3-0.2-2.6-10.7-13.2l-10.7-10.8h-25h-25V67.3V35h3.3h3.3v-3.5v-3.5l-10.8-10.7L159.7,6.5H128H96.3L85.5,17.2z M160.1,81.6v46.6h32.1h32.1v49.9V228h-42.7h-42.7v-21.2v-21.2H128h-10.9v21.2V228H74.4H31.8v-49.9v-49.9h32.1h32.1V81.6V35H128h32.1V81.6z"/>

            <path fill="white" d="M121.6,57.6c-7.1,1.9-12.9,6.7-16.1,13.4c-1.6,3.3-2,4.9-2.3,8.8c-0.7,10.8,4.5,19.6,14.4,24.4c3.5,1.7,3.9,1.8,10.3,1.8c6.5,0,6.8-0.1,10.6-1.9c15.8-7.8,19.1-28.2,6.5-40.6C139.1,57.8,129.8,55.4,121.6,57.6z M130.7,65.2c0.7,0.9,0.9,2.7,0.9,7v5.7h5.7c6.6,0,8.2,0.7,8.2,3.5c0,3.5-0.8,3.8-10.4,3.8c-11.3,0-10.8,0.6-10.8-10.7c0-7.1,0.2-8.6,0.9-9.5C126.6,63.5,129.7,63.6,130.7,65.2z"/>

            <g fill="white">
                <path d="M45.7,156.9v14.2l10.8-0.1l10.7-0.2l0.2-14.1l0.1-14.1H56.6H45.7V156.9z"/>
                <path d="M81.4,156.9v14.2l10.8-0.1l10.7-0.2l0.2-14.1l0.1-14.1H92.3H81.4V156.9z"/>
                <path d="M117.1,156.9v14.2l10.8-0.1l10.7-0.2l0.2-14.1l0.1-14.1H128h-10.9V156.9z"/>
                <path d="M152.8,156.9v14.2l10.8-0.1l10.7-0.2l0.2-14.1l0.1-14.1h-10.9h-10.9L152.8,156.9L152.8,156.9z"/>
                <path d="M188.5,156.9v14.2l10.8-0.1l10.7-0.2l0.2-14.1l0.1-14.1h-10.9h-10.9V156.9L188.5,156.9z"/>
                <path d="M153.1,185.7c-0.2,0.4-0.2,6.9-0.2,14.4l0.2,13.7h10.6h10.6v-14.2v-14.2l-10.5-0.2C155.7,185,153.3,185.2,153.1,185.7z"/>
                <path d="M45.8,199.7l0.2,14.1h10.6h10.6l0.2-14.1l0.1-14.1H56.6H45.7L45.8,199.7z"/>
                <path d="M81.5,199.7l0.2,14.1h10.6h10.6l0.2-14.1l0.1-14.1H92.3H81.4L81.5,199.7z"/>
                <path d="M188.6,199.7l0.2,14.1h10.6H210l0.2-14.1l0.1-14.1h-10.9h-10.9L188.6,199.7z"/>
            </g>
</svg>