<svg xmlns="http://www.w3.org/2000/svg" version="1.1" x="0px" y="0px" viewBox="0 2 50 50" enable-background="new 0 0 50 50" xml:space="preserve">
<!--    <rect x="0" y="0" stroke="red" width="50" height="50" fill="none"/>-->
    <path fill="currentColor" d="M21.756,9.194l-9.907,32.042h-1.844v-2.955L21.231,9.194H21.756z M7.159,28.656l-2.842,4.43v3.154h4.26l3.208-7.584H7.159z   M14.921,21.376h-2.733l-1.374,1.943v1.387h2.566L14.921,21.376z M16.669,16.361h-1.455l-0.723,1.03v0.736h1.364L16.669,16.361z   M18.016,12.876h-1.076l-0.528,0.761v0.542h1.008L18.016,12.876z M19.067,10.455h-0.501l-0.262,0.359v0.26h0.479L19.067,10.455z   M26.87,9.194l9.902,32.042h1.853v-2.955L27.398,9.194H26.87z M41.462,28.656h-4.617l3.199,7.584h4.273v-3.154L41.462,28.656z   M35.255,24.706h2.57v-1.387l-1.373-1.943H33.71L35.255,24.706z M32.783,18.128h1.355v-0.736l-0.728-1.03h-1.45L32.783,18.128z   M32.224,14.179v-0.542l-0.542-0.761h-1.066l0.605,1.303H32.224z M30.326,11.073v-0.26l-0.258-0.359h-0.506l0.284,0.619H30.326z   M24.056,21.376h-4.563l-0.7,3.33h5.264h0.528h5.25l-0.696-3.33h-4.554H24.056z M24.584,16.361h-0.528h-3.239l-0.43,1.767h3.669  h0.528h3.65l-0.416-1.767H24.584z M24.688,12.876h-0.745h-2.367l-0.344,1.303h2.711h0.745h2.711l-0.344-1.303H24.688z   M24.688,11.073h1.46l-0.104-0.619h-1.355h-0.745h-1.355l-0.095,0.619h1.45H24.688z M24.584,28.656h-0.528h-6.781l-2.169,7.629h8.95  h0.528h8.94l-2.178-7.629H24.584z"/>
</svg>