<svg width="26" height="150" viewBox="0 0 116 24" fill="none" xmlns="http://www.w3.org/2000/svg">
<!--    <rect x="0" y="0" width="100%" height="100%" stroke="red"/>-->
    <g transform="translate(0, 25) rotate(-90)">
        <path d="M13 .5c3.072 0 5.94 2.183 8.073 5.297C23.197 8.9 24.5 12.803 24.5 16v75c0 3.22-1.099 7.38-3.116 10.727-2.022 3.355-4.889 5.773-8.384 5.773-3.05 0-5.919-2.404-8.063-5.783C2.807 98.36 1.5 94.202 1.5 91V16c0-3.197 1.303-7.1 3.427-10.203C7.06 2.683 9.928.5 13 .5Z"
              stroke="#62abd9" stroke-width="2"/>
<!--        <path d="M13 .5c3.072 0 5.94 2.183 8.073 5.297C23.197 8.9 24.5 12.803 24.5 16v75c0 3.22-1.099 7.38-3.116 10.727-2.022 3.355-4.889 5.773-8.384 5.773-3.05 0-5.919-2.404-8.063-5.783C2.807 98.36 1.5 94.202 1.5 91V16c0-3.197 1.303-7.1 3.427-10.203C7.06 2.683 9.928.5 13 .5Z"-->
<!--              stroke="#62abd9" stroke-width="2"/>-->
        <path transform="translate (0 -83) scale(1 2)" d="M21 85.273V84s-2.214 2.727-8 2.727S5 84 5 84v1.273S7.857 90 13 90s8-4.727 8-4.727Z" fill="currentColor" />
        <path d="M7 16.5a.5.5 0 0 1 1 0v60a.5.5 0 0 1-1 0v-60Zm11 0a.5.5 0 0 1 1 0v60a.5.5 0 0 1-1 0v-60Z" fill="#396782"/>
        <path d="M20 103c-2-4.627-5.783-5-7-5-1.217 0-5 .373-7 5m18.5-35c0-4.627-9.5-5-11.5-5s-11.5.373-11.5 5m23-34c0-4.627-9.5-5-11.5-5s-11.5.373-11.5 5"
              stroke="#396782" stroke-width="3"/>
    </g>
    <defs>
    </defs>
</svg>